<?xml version="1.0" encoding="UTF-8"?>
<svg viewBox="0 0 25 24" xmlns="http://www.w3.org/2000/svg">
<path d="m11.243 3c-4.1421 0-7.5 3.3579-7.5 7.5 0 4.1421 3.3579 7.5 7.5 7.5 1.7106 0 3.2873-0.5726 4.5491-1.5367l4.2438 4.2438 0.0942 0.0832c0.3923 0.305 0.9595 0.2773 1.32-0.0832 0.3906-0.3905 0.3906-1.0237 0-1.4142l-4.2437-4.2438c0.964-1.2618 1.5366-2.8386 1.5366-4.5491 0-4.1421-3.3578-7.5-7.5-7.5zm0 2c3.0376 0 5.5 2.4624 5.5 5.5 0 3.0376-2.4624 5.5-5.5 5.5-3.0376 0-5.5-2.4624-5.5-5.5 0-3.0376 2.4624-5.5 5.5-5.5z" clip-rule="evenodd" fill="#5D3EBC" fill-rule="evenodd"/>
<path d="m15.792 16.463 0.1768-0.1767-0.1547-0.1547-0.1738 0.1328 0.1517 0.1986zm4.2438 4.2438-0.1768 0.1768 0.0055 0.0055 0.0058 0.0051 0.1655-0.1874zm0.0942 0.0832-0.1655 0.1874 0.0059 0.0052 0.0062 0.0048 0.1534-0.1974zm1.32-0.0832 0.1768 0.1768-0.1768-0.1768zm0-1.4142 0.1768-0.1768-0.1768 0.1768zm-4.2437-4.2438-0.1987-0.1518-0.1328 0.1739 0.1547 0.1547 0.1768-0.1768zm-13.213-4.5491c0-4.0041 3.2459-7.25 7.25-7.25v-0.5c-4.2802 0-7.75 3.4698-7.75 7.75h0.5zm7.25 7.25c-4.004 0-7.25-3.2459-7.25-7.25h-0.5c0 4.2802 3.4698 7.75 7.75 7.75v-0.5zm4.3974-1.4853c-1.2198 0.9319-2.7436 1.4853-4.3974 1.4853v0.5c1.7673 0 3.3971-0.5918 4.7009-1.588l-0.3035-0.3973zm4.5723 4.2656-4.2438-4.2437-0.3535 0.3535 4.2437 4.2438 0.3536-0.3536zm0.0829 0.0726-0.0942-0.0832-0.331 0.3748 0.0942 0.0832 0.331-0.3748zm0.9778-0.0726c-0.2703 0.2703-0.6958 0.2912-0.9898 0.0626l-0.3069 0.3948c0.4905 0.3814 1.1995 0.3469 1.6502-0.1038l-0.3535-0.3536zm0-1.0606c0.2928 0.2929 0.2928 0.7677 0 1.0606l0.3535 0.3536c0.4882-0.4882 0.4882-1.2796 0-1.7678l-0.3535 0.3536zm-4.2438-4.2438 4.2438 4.2438 0.3535-0.3536-4.2438-4.2438-0.3535 0.3536zm1.4634-4.7259c0 1.6538-0.5534 3.1776-1.4853 4.3973l0.3973 0.3036c0.9962-1.3039 1.588-2.9336 1.588-4.7009h-0.5zm-7.25-7.25c4.0041 0 7.25 3.2459 7.25 7.25h0.5c0-4.2802-3.4698-7.75-7.75-7.75v0.5zm5.75 7.25c0-3.1756-2.5743-5.75-5.75-5.75v0.5c2.8995 0 5.25 2.3505 5.25 5.25h0.5zm-5.75 5.75c3.1757 0 5.75-2.5744 5.75-5.75h-0.5c0 2.8995-2.3505 5.25-5.25 5.25v0.5zm-5.75-5.75c0 3.1756 2.5744 5.75 5.75 5.75v-0.5c-2.8995 0-5.25-2.3505-5.25-5.25h-0.5zm5.75-5.75c-3.1756 0-5.75 2.5744-5.75 5.75h0.5c0-2.8995 2.3505-5.25 5.25-5.25v-0.5z" fill="#5D3EBC"/>
</svg>
